<?xml version="1.0" encoding="UTF-8"?>
<svg width="59px" height="59px" viewBox="0 0 59 59" version="1.1" xmlns="http://www.w3.org/2000/svg" xmlns:xlink="http://www.w3.org/1999/xlink">
    <!-- Generator: Sketch 41 (35326) - http://www.bohemiancoding.com/sketch -->
    <title>X</title>
    <desc>Created with Sketch.</desc>
    <defs></defs>
    <g id="Symbols" stroke="none" stroke-width="1" fill="none" fill-rule="evenodd">
        <g id="X">
            <g>
                <circle id="Oval-Copy-2" fill="#DC6962" cx="29.5" cy="29.5" r="29.5"></circle>
                <path d="M31.8300432,29.9996665 L44.4136457,17.4160639 C45.1954514,16.6349253 45.1954514,15.3674929 44.4136457,14.5863543 C43.6318401,13.8045486 42.3657418,13.8045486 41.5839361,14.5863543 L29.0003335,27.1699568 L16.4160639,14.5863543 C15.6342582,13.8045486 14.3681599,13.8045486 13.5863543,14.5863543 C12.8045486,15.3674929 12.8045486,16.6349253 13.5863543,17.4160639 L26.1706239,29.9996665 L13.5863543,42.5832691 C12.8045486,43.3644077 12.8045486,44.6318401 13.5863543,45.4129787 C13.9772571,45.8032144 14.4895666,45.9986659 15.0012091,45.9986659 C15.5128515,45.9986659 16.025161,45.8032144 16.4160639,45.4123116 L29.0003335,32.828709 L41.5839361,45.4123116 C41.974839,45.8032144 42.4871485,45.9986659 42.9987909,45.9986659 C43.5104334,45.9986659 44.0227429,45.8032144 44.4136457,45.4123116 C45.1954514,44.631173 45.1954514,43.3637406 44.4136457,42.582602 L31.8300432,29.9996665 Z" id="Shape-Copy" fill="#FFFFFF"></path>
            </g>
        </g>
    </g>
</svg>
